# xmcd
#
# Track frame offsets: 
#        150
#        8823
#        20153
#        29923
#        41174
#        50546
#        61623
#        68907
#        78983
#        87695
#        96948
#        106697
#
# Disc length: 1570 seconds
#
# Revision: 0
# Processed by: cddbd v1.5.2PL0 Copyright (c) Steve Scherf et al.
# Submitted via: ExactAudioCopy v0.99pb5
#
DISCID=9e06200c
DTITLE=Chet Atkins - Mister Guitar
DYEAR=1959
DGENRE=instrumental
TTITLE0=I Know That You Know
TTITLE1=Rainbow
TTITLE2=Hello Bluebird
TTITLE3=Siesta
TTITLE4=Country Style
TTITLE5=Show Me The Way To Go Home
TTITLE6=I'm Forever Blowing Bubbles
TTITLE7=Blackwoods
TTITLE8=Country Gentleman
TTITLE9=Slinkey
TTITLE10=Jessie
TTITLE11=Concerto in C Minor
EXTD=
EXTT0=
EXTT1=
EXTT2=
EXTT3=
EXTT4=
EXTT5=
EXTT6=
EXTT7=
EXTT8=
EXTT9=
EXTT10=
EXTT11=
PLAYORDER=
